<svg viewBox="0 0 100 100" xmlns="http://www.w3.org/2000/svg" role="img" aria-label="Faith's Blissful Delights">
  <circle cx="50" cy="50" r="48" fill="none" stroke="#d98a9e" stroke-width="1.5"/>
  <circle cx="50" cy="50" r="42" fill="none" stroke="#c9a96a" stroke-width="0.8" stroke-dasharray="1.5 3"/>
  <!-- stylized cake / cupcake -->
  <g fill="none" stroke="#b86a7e" stroke-width="2.4" stroke-linecap="round" stroke-linejoin="round">
    <!-- swirl of frosting -->
    <path d="M50 24c-6 0-9 4-9 8 0 3 2 5 5 5"/>
    <path d="M50 24c6 0 9 4 9 8 0 4-3 6-7 6"/>
    <path d="M41 37c-4 0-7 3-7 7 0 3 2 5 5 5"/>
    <path d="M59 37c4 0 7 3 7 7 0 3-2 5-5 5"/>
  </g>
  <!-- cupcake base -->
  <path d="M35 50 h30 l-4 20 a3 3 0 0 1-3 2.5 H42 a3 3 0 0 1-3-2.5 Z"
        fill="#f3d9df" stroke="#b86a7e" stroke-width="2.2" stroke-linejoin="round"/>
  <path d="M37 57 h26" stroke="#d98a9e" stroke-width="1.6" stroke-linecap="round"/>
  <!-- cherry -->
  <circle cx="50" cy="44" r="3.2" fill="#b86a7e"/>
  <path d="M50 41 q3-4 5-3" fill="none" stroke="#c9a96a" stroke-width="1.4" stroke-linecap="round"/>
</svg>
